<svg width="109" height="18" viewBox="0 0 109 18" fill="none" xmlns="http://www.w3.org/2000/svg">
<path d="M90.564 11.296V9.976L94.488 4.36H96.444V9.832H97.5V11.296H96.444V13H94.764V11.296H90.564ZM94.872 6.16L92.412 9.832H94.872V6.16ZM99.4768 13.084C99.1728 13.084 98.9208 12.992 98.7208 12.808C98.5288 12.616 98.4328 12.38 98.4328 12.1C98.4328 11.82 98.5288 11.588 98.7208 11.404C98.9208 11.212 99.1728 11.116 99.4768 11.116C99.7728 11.116 100.017 11.212 100.209 11.404C100.401 11.588 100.497 11.82 100.497 12.1C100.497 12.38 100.401 12.616 100.209 12.808C100.017 12.992 99.7728 13.084 99.4768 13.084ZM103.573 10.54C103.637 10.892 103.781 11.164 104.005 11.356C104.237 11.54 104.545 11.632 104.929 11.632C105.425 11.632 105.785 11.428 106.009 11.02C106.233 10.604 106.345 9.908 106.345 8.932C106.161 9.188 105.901 9.388 105.565 9.532C105.237 9.676 104.881 9.748 104.497 9.748C103.985 9.748 103.521 9.644 103.105 9.436C102.697 9.22 102.373 8.904 102.133 8.488C101.893 8.064 101.773 7.552 101.773 6.952C101.773 6.064 102.037 5.36 102.565 4.84C103.093 4.312 103.813 4.048 104.725 4.048C105.861 4.048 106.661 4.412 107.125 5.14C107.597 5.868 107.833 6.964 107.833 8.428C107.833 9.468 107.741 10.32 107.557 10.984C107.381 11.648 107.073 12.152 106.633 12.496C106.201 12.84 105.609 13.012 104.857 13.012C104.265 13.012 103.761 12.9 103.345 12.676C102.929 12.444 102.609 12.144 102.385 11.776C102.169 11.4 102.045 10.988 102.013 10.54H103.573ZM104.845 8.38C105.261 8.38 105.589 8.252 105.829 7.996C106.069 7.74 106.189 7.396 106.189 6.964C106.189 6.492 106.061 6.128 105.805 5.872C105.557 5.608 105.217 5.476 104.785 5.476C104.353 5.476 104.009 5.612 103.753 5.884C103.505 6.148 103.381 6.5 103.381 6.94C103.381 7.364 103.501 7.712 103.741 7.984C103.989 8.248 104.357 8.38 104.845 8.38Z" fill="black"/>
<path d="M7.49624 3.78263C7.65056 3.33868 7.72771 3.11671 7.84181 3.05519C7.94056 3.00195 8.05946 3.00195 8.15821 3.05519C8.2723 3.11671 8.34946 3.33868 8.50377 3.78263L9.52396 6.71755C9.56787 6.8439 9.58983 6.90708 9.62941 6.95413C9.66436 6.99569 9.70894 7.02808 9.75927 7.04848C9.81625 7.07158 9.88312 7.07294 10.0169 7.07567L13.1234 7.13897C13.5933 7.14855 13.8282 7.15334 13.922 7.24284C14.0032 7.3203 14.0399 7.43338 14.0198 7.54375C13.9965 7.67127 13.8093 7.81325 13.4347 8.09719L10.9587 9.97439C10.8521 10.0552 10.7988 10.0956 10.7663 10.1478C10.7376 10.1939 10.7205 10.2463 10.7167 10.3005C10.7123 10.3618 10.7317 10.4258 10.7704 10.5538L11.6702 13.5279C11.8063 13.9777 11.8744 14.2027 11.8182 14.3195C11.7696 14.4206 11.6734 14.4905 11.5622 14.5055C11.4338 14.5228 11.2409 14.3885 10.8551 14.1201L8.30464 12.3453C8.19484 12.2689 8.13994 12.2307 8.08027 12.2159C8.02756 12.2028 7.97245 12.2028 7.91975 12.2159C7.86008 12.2307 7.80518 12.2689 7.69538 12.3453L5.14493 14.1201C4.75914 14.3885 4.56625 14.5228 4.43778 14.5055C4.3266 14.4905 4.2304 14.4206 4.18181 14.3195C4.12567 14.2027 4.19372 13.9777 4.32982 13.5279L5.22958 10.5538C5.26832 10.4258 5.28768 10.3618 5.28332 10.3005C5.27947 10.2463 5.26244 10.1939 5.23372 10.1478C5.2012 10.0956 5.1479 10.0552 5.04131 9.97439L2.56528 8.0972C2.19075 7.81325 2.00349 7.67127 1.98023 7.54375C1.96011 7.43338 1.99686 7.3203 2.07801 7.24284C2.17177 7.15334 2.40672 7.14855 2.87663 7.13897L5.98316 7.07567C6.1169 7.07294 6.18377 7.07158 6.24074 7.04848C6.29107 7.02808 6.33565 6.99569 6.37061 6.95413C6.41018 6.90708 6.43214 6.8439 6.47606 6.71755L7.49624 3.78263Z" fill="#EBE100" stroke="#EBE100" stroke-width="1.33333" stroke-linecap="round" stroke-linejoin="round"/>
<path d="M24.4962 3.78263C24.6505 3.33868 24.7277 3.11671 24.8418 3.05519C24.9405 3.00195 25.0594 3.00195 25.1582 3.05519C25.2723 3.11671 25.3494 3.33868 25.5038 3.78263L26.5239 6.71755C26.5679 6.8439 26.5898 6.90708 26.6294 6.95413C26.6643 6.99569 26.7089 7.02808 26.7593 7.04848C26.8162 7.07158 26.8831 7.07294 27.0168 7.07567L30.1234 7.13897C30.5933 7.14855 30.8282 7.15334 30.922 7.24284C31.0031 7.3203 31.0399 7.43338 31.0198 7.54375C30.9965 7.67127 30.8093 7.81325 30.4347 8.09719L27.9587 9.97439C27.8521 10.0552 27.7988 10.0956 27.7663 10.1478C27.7376 10.1939 27.7205 10.2463 27.7167 10.3005C27.7123 10.3618 27.7317 10.4258 27.7704 10.5538L28.6702 13.5279C28.8063 13.9777 28.8743 14.2027 28.8182 14.3195C28.7696 14.4206 28.6734 14.4905 28.5622 14.5055C28.4338 14.5228 28.2409 14.3885 27.8551 14.1201L25.3046 12.3453C25.1948 12.2689 25.1399 12.2307 25.0803 12.2159C25.0275 12.2028 24.9724 12.2028 24.9197 12.2159C24.8601 12.2307 24.8052 12.2689 24.6954 12.3453L22.1449 14.1201C21.7591 14.3885 21.5662 14.5228 21.4378 14.5055C21.3266 14.4905 21.2304 14.4206 21.1818 14.3195C21.1257 14.2027 21.1937 13.9777 21.3298 13.5279L22.2296 10.5538C22.2683 10.4258 22.2877 10.3618 22.2833 10.3005C22.2795 10.2463 22.2624 10.1939 22.2337 10.1478C22.2012 10.0956 22.1479 10.0552 22.0413 9.97439L19.5653 8.0972C19.1907 7.81325 19.0035 7.67127 18.9802 7.54375C18.9601 7.43338 18.9968 7.3203 19.078 7.24284C19.1718 7.15334 19.4067 7.14855 19.8766 7.13897L22.9831 7.07567C23.1169 7.07294 23.1838 7.07158 23.2407 7.04848C23.2911 7.02808 23.3356 6.99569 23.3706 6.95413C23.4102 6.90708 23.4321 6.8439 23.476 6.71755L24.4962 3.78263Z" fill="#EBE100" stroke="#EBE100" stroke-width="1.33333" stroke-linecap="round" stroke-linejoin="round"/>
<path d="M41.4962 3.78263C41.6505 3.33868 41.7277 3.11671 41.8418 3.05519C41.9405 3.00195 42.0594 3.00195 42.1582 3.05519C42.2723 3.11671 42.3494 3.33868 42.5038 3.78263L43.5239 6.71755C43.5679 6.8439 43.5898 6.90708 43.6294 6.95413C43.6643 6.99569 43.7089 7.02808 43.7593 7.04848C43.8162 7.07158 43.8831 7.07294 44.0168 7.07567L47.1234 7.13897C47.5933 7.14855 47.8282 7.15334 47.922 7.24284C48.0031 7.3203 48.0399 7.43338 48.0198 7.54375C47.9965 7.67127 47.8093 7.81325 47.4347 8.09719L44.9587 9.97439C44.8521 10.0552 44.7988 10.0956 44.7663 10.1478C44.7376 10.1939 44.7205 10.2463 44.7167 10.3005C44.7123 10.3618 44.7317 10.4258 44.7704 10.5538L45.6702 13.5279C45.8063 13.9777 45.8743 14.2027 45.8182 14.3195C45.7696 14.4206 45.6734 14.4905 45.5622 14.5055C45.4338 14.5228 45.2409 14.3885 44.8551 14.1201L42.3046 12.3453C42.1948 12.2689 42.1399 12.2307 42.0803 12.2159C42.0275 12.2028 41.9724 12.2028 41.9197 12.2159C41.8601 12.2307 41.8052 12.2689 41.6954 12.3453L39.1449 14.1201C38.7591 14.3885 38.5662 14.5228 38.4378 14.5055C38.3266 14.4905 38.2304 14.4206 38.1818 14.3195C38.1257 14.2027 38.1937 13.9777 38.3298 13.5279L39.2296 10.5538C39.2683 10.4258 39.2877 10.3618 39.2833 10.3005C39.2795 10.2463 39.2624 10.1939 39.2337 10.1478C39.2012 10.0956 39.1479 10.0552 39.0413 9.97439L36.5653 8.0972C36.1907 7.81325 36.0035 7.67127 35.9802 7.54375C35.9601 7.43338 35.9968 7.3203 36.078 7.24284C36.1718 7.15334 36.4067 7.14855 36.8766 7.13897L39.9831 7.07567C40.1169 7.07294 40.1838 7.07158 40.2407 7.04848C40.2911 7.02808 40.3356 6.99569 40.3706 6.95413C40.4102 6.90708 40.4321 6.8439 40.476 6.71755L41.4962 3.78263Z" fill="#EBE100" stroke="#EBE100" stroke-width="1.33333" stroke-linecap="round" stroke-linejoin="round"/>
<path d="M58.4962 3.78263C58.6505 3.33868 58.7277 3.11671 58.8418 3.05519C58.9405 3.00195 59.0594 3.00195 59.1582 3.05519C59.2723 3.11671 59.3494 3.33868 59.5038 3.78263L60.5239 6.71755C60.5679 6.8439 60.5898 6.90708 60.6294 6.95413C60.6643 6.99569 60.7089 7.02808 60.7593 7.04848C60.8162 7.07158 60.8831 7.07294 61.0168 7.07567L64.1234 7.13897C64.5933 7.14855 64.8282 7.15334 64.922 7.24284C65.0031 7.3203 65.0399 7.43338 65.0198 7.54375C64.9965 7.67127 64.8093 7.81325 64.4347 8.09719L61.9587 9.97439C61.8521 10.0552 61.7988 10.0956 61.7663 10.1478C61.7376 10.1939 61.7205 10.2463 61.7167 10.3005C61.7123 10.3618 61.7317 10.4258 61.7704 10.5538L62.6702 13.5279C62.8063 13.9777 62.8743 14.2027 62.8182 14.3195C62.7696 14.4206 62.6734 14.4905 62.5622 14.5055C62.4338 14.5228 62.2409 14.3885 61.8551 14.1201L59.3046 12.3453C59.1948 12.2689 59.1399 12.2307 59.0803 12.2159C59.0275 12.2028 58.9724 12.2028 58.9197 12.2159C58.8601 12.2307 58.8052 12.2689 58.6954 12.3453L56.1449 14.1201C55.7591 14.3885 55.5662 14.5228 55.4378 14.5055C55.3266 14.4905 55.2304 14.4206 55.1818 14.3195C55.1257 14.2027 55.1937 13.9777 55.3298 13.5279L56.2296 10.5538C56.2683 10.4258 56.2877 10.3618 56.2833 10.3005C56.2795 10.2463 56.2624 10.1939 56.2337 10.1478C56.2012 10.0956 56.1479 10.0552 56.0413 9.97439L53.5653 8.0972C53.1907 7.81325 53.0035 7.67127 52.9802 7.54375C52.9601 7.43338 52.9968 7.3203 53.078 7.24284C53.1718 7.15334 53.4067 7.14855 53.8766 7.13897L56.9831 7.07567C57.1169 7.07294 57.1838 7.07158 57.2407 7.04848C57.2911 7.02808 57.3356 6.99569 57.3706 6.95413C57.4102 6.90708 57.4321 6.8439 57.476 6.71755L58.4962 3.78263Z" fill="#EBE100" stroke="#EBE100" stroke-width="1.33333" stroke-linecap="round" stroke-linejoin="round"/>
<path d="M75.4962 3.78263C75.6505 3.33868 75.7277 3.11671 75.8418 3.05519C75.9405 3.00195 76.0594 3.00195 76.1582 3.05519C76.2723 3.11671 76.3494 3.33868 76.5038 3.78263L77.5239 6.71755C77.5679 6.8439 77.5898 6.90708 77.6294 6.95413C77.6643 6.99569 77.7089 7.02808 77.7593 7.04848C77.8162 7.07158 77.8831 7.07294 78.0168 7.07567L81.1234 7.13897C81.5933 7.14855 81.8282 7.15334 81.922 7.24284C82.0031 7.3203 82.0399 7.43338 82.0198 7.54375C81.9965 7.67127 81.8093 7.81325 81.4347 8.09719L78.9587 9.97439C78.8521 10.0552 78.7988 10.0956 78.7663 10.1478C78.7376 10.1939 78.7205 10.2463 78.7167 10.3005C78.7123 10.3618 78.7317 10.4258 78.7704 10.5538L79.6702 13.5279C79.8063 13.9777 79.8743 14.2027 79.8182 14.3195C79.7696 14.4206 79.6734 14.4905 79.5622 14.5055C79.4338 14.5228 79.2409 14.3885 78.8551 14.1201L76.3046 12.3453C76.1948 12.2689 76.1399 12.2307 76.0803 12.2159C76.0275 12.2028 75.9724 12.2028 75.9197 12.2159C75.8601 12.2307 75.8052 12.2689 75.6954 12.3453L73.1449 14.1201C72.7591 14.3885 72.5662 14.5228 72.4378 14.5055C72.3266 14.4905 72.2304 14.4206 72.1818 14.3195C72.1257 14.2027 72.1937 13.9777 72.3298 13.5279L73.2296 10.5538C73.2683 10.4258 73.2877 10.3618 73.2833 10.3005C73.2795 10.2463 73.2624 10.1939 73.2337 10.1478C73.2012 10.0956 73.1479 10.0552 73.0413 9.97439L70.5653 8.0972C70.1907 7.81325 70.0035 7.67127 69.9802 7.54375C69.9601 7.43338 69.9968 7.3203 70.078 7.24284C70.1718 7.15334 70.4067 7.14855 70.8766 7.13897L73.9831 7.07567C74.1169 7.07294 74.1838 7.07158 74.2407 7.04848C74.2911 7.02808 74.3356 6.99569 74.3706 6.95413C74.4102 6.90708 74.4321 6.8439 74.476 6.71755L75.4962 3.78263Z" fill="#EBE100" stroke="#EBE100" stroke-width="1.33333" stroke-linecap="round" stroke-linejoin="round"/>
</svg>
